<svg xmlns="http://www.w3.org/2000/svg" viewBox="0 0 1024 1024">
  <defs>
    <radialGradient id="bg" cx="42%" cy="32%" r="78%">
      <stop offset="0%" stop-color="#2A2018"/>
      <stop offset="64%" stop-color="#17130F"/>
      <stop offset="100%" stop-color="#100D0A"/>
    </radialGradient>
    <linearGradient id="copper" x1="260" y1="180" x2="760" y2="850">
      <stop offset="0%" stop-color="#E7A25E"/>
      <stop offset="54%" stop-color="#D4874E"/>
      <stop offset="100%" stop-color="#B76531"/>
    </linearGradient>
    <linearGradient id="cream" x1="320" y1="300" x2="720" y2="720">
      <stop offset="0%" stop-color="#FFF8EE"/>
      <stop offset="100%" stop-color="#F4E3CD"/>
    </linearGradient>
    <filter id="shadow" x="-20%" y="-20%" width="140%" height="150%">
      <feDropShadow dx="0" dy="24" stdDeviation="28" flood-color="#000000" flood-opacity="0.32"/>
    </filter>
  </defs>
  <rect width="1024" height="1024" fill="url(#bg)"/>
  <circle cx="512" cy="536" r="340" fill="#F4E7D5" opacity="0.045"/>
<g filter="url(#shadow)">
      <path d="M512 292c-9-58 13-105 67-140" fill="none" stroke="url(#cream)" stroke-width="34" stroke-linecap="round"/>
      <path d="M516 286c35-61 86-88 153-80 16 68-6 121-66 160-35 22-74 29-116 20 0-37 9-70 29-100Z" fill="url(#copper)"/>
      <path d="M294 459c0-103 75-180 176-180 45 0 81 15 111 39 30-24 66-39 111-39 101 0 176 77 176 180 0 164-126 330-287 330S294 623 294 459Z" fill="url(#copper)"/>
      <path d="M374 481c0-60 43-105 101-105 33 0 62 14 86 40 12 13 29 13 41 0 24-26 53-40 86-40 58 0 101 45 101 105 0 111-86 230-208 230S374 592 374 481Z" fill="#17130F" opacity="0.92"/>
      <path d="M431 537l92 94 171-205" fill="none" stroke="url(#cream)" stroke-width="64" stroke-linecap="round" stroke-linejoin="round"/>
    </g></svg>